<svg xmlns="http://www.w3.org/2000/svg" width="26.324" height="26.246" viewBox="0 0 26.324 26.246">
  <g id="hamburger_1_" data-name="hamburger (1)" transform="translate(0 -0.756)">
    <g id="Group_80" data-name="Group 80" transform="translate(0.385 17.335)">
      <path id="Path_251" data-name="Path 251" d="M31.325,327H9.222A1.725,1.725,0,0,1,7.5,325.276v-.34a1.725,1.725,0,0,1,1.725-1.725h22.1a1.725,1.725,0,0,1,1.725,1.725v.34A1.725,1.725,0,0,1,31.325,327Z" transform="translate(-7.497 -323.211)" fill="#e94444"/>
    </g>
    <g id="Group_81" data-name="Group 81" transform="translate(0.385 10.56)">
      <path id="Path_252" data-name="Path 252" d="M31.325,195.236H9.222A1.725,1.725,0,0,1,7.5,193.511v-.34a1.725,1.725,0,0,1,1.725-1.725h22.1a1.725,1.725,0,0,1,1.725,1.725v.34A1.725,1.725,0,0,1,31.325,195.236Z" transform="translate(-7.497 -191.446)" fill="#9e5528"/>
    </g>
    <g id="Group_82" data-name="Group 82" transform="translate(23.204 17.335)">
      <path id="Path_253" data-name="Path 253" d="M454.049,324.935v.34A1.725,1.725,0,0,1,452.324,327h-1.009a1.725,1.725,0,0,0,1.725-1.726v-.34a1.725,1.725,0,0,0-1.725-1.725h1.009A1.725,1.725,0,0,1,454.049,324.935Z" transform="translate(-451.315 -323.21)" fill="#d83131"/>
    </g>
    <g id="Group_83" data-name="Group 83" transform="translate(23.204 10.56)">
      <path id="Path_254" data-name="Path 254" d="M454.049,193.173v.34a1.725,1.725,0,0,1-1.725,1.725h-1.009a1.725,1.725,0,0,0,1.725-1.725v-.34a1.725,1.725,0,0,0-1.725-1.725h1.009A1.725,1.725,0,0,1,454.049,193.173Z" transform="translate(-451.315 -191.448)" fill="#904d24"/>
    </g>
    <g id="Group_84" data-name="Group 84" transform="translate(0.613 1.142)">
      <path id="Path_255" data-name="Path 255" d="M24.48,8.254c-8.616.125-11.511,4.8-12.467,7.514a1.434,1.434,0,0,0,1.357,1.9H35.59a1.437,1.437,0,0,0,1.352-1.921c-.961-2.718-3.862-7.374-12.461-7.5Z" transform="translate(-11.932 -8.254)" fill="#fe9738"/>
    </g>
    <g id="Group_85" data-name="Group 85" transform="translate(6.378 1.142)">
      <path id="Path_256" data-name="Path 256" d="M141.951,17.669h-.123a1.436,1.436,0,0,0,.286-1.445c-.962-2.718-3.862-7.374-12.461-7.5a17.862,17.862,0,0,0-5.595.894,16.68,16.68,0,0,1,6.784-1.37c8.6.125,11.5,4.78,12.461,7.5A1.438,1.438,0,0,1,141.951,17.669Z" transform="translate(-124.058 -8.25)" fill="#fe860a"/>
    </g>
    <g id="Group_86" data-name="Group 86" transform="translate(2.059 21.125)">
      <path id="Path_257" data-name="Path 257" d="M62.2,396.925H40.1s-.762,3.681,3.575,5.128a7.243,7.243,0,0,0,2.3.364H56.331a7.243,7.243,0,0,0,2.3-.364C62.965,400.605,62.2,396.925,62.2,396.925Z" transform="translate(-40.048 -396.925)" fill="#fe9738"/>
    </g>
    <g id="Group_87" data-name="Group 87" transform="translate(17.17 21.125)">
      <path id="Path_258" data-name="Path 258" d="M337.435,402.058a7.238,7.238,0,0,1-2.3.364h-1.171a7.238,7.238,0,0,0,2.3-.364c4.337-1.448,3.575-5.128,3.575-5.128h1.171S341.773,400.61,337.435,402.058Z" transform="translate(-333.968 -396.93)" fill="#fe860a"/>
    </g>
    <g id="Group_88" data-name="Group 88" transform="translate(2.059 15.983)">
      <path id="Path_259" data-name="Path 259" d="M62.244,298.965a1.017,1.017,0,0,1-1.666.781,1.626,1.626,0,0,0-1.108-.4c-1.387,0-1.387,1.1-2.774,1.1s-1.387-1.1-2.774-1.1-1.387,1.1-2.774,1.1-1.387-1.1-2.774-1.1-1.387,1.1-2.774,1.1-1.387-1.1-2.774-1.1a1.625,1.625,0,0,0-1.108.4,1.017,1.017,0,0,1-1.666-.781v-2.038H62.244v2.038Z" transform="translate(-40.05 -296.927)" fill="#bbec6c"/>
    </g>
    <g id="Group_89" data-name="Group 89" transform="translate(22.72 15.983)">
      <path id="Path_260" data-name="Path 260" d="M443.441,296.928v2.038a1.016,1.016,0,0,1-1.534.874,1,1,0,0,0,.5-.874v-2.038Z" transform="translate(-441.907 -296.928)" fill="#a2e62e"/>
    </g>
    <g id="Group_90" data-name="Group 90" transform="translate(2.07 14.35)">
      <path id="Path_261" data-name="Path 261" d="M40.265,265.16v1.648h2.379a.9.9,0,0,1,.9.9v4.748a1.146,1.146,0,0,0,2.292,0V267.7a.9.9,0,0,1,.9-.9h15.72V265.16Z" transform="translate(-40.265 -265.16)" fill="#fee45a"/>
    </g>
    <g id="Group_91" data-name="Group 91" transform="translate(23.219 14.35)">
      <path id="Path_262" data-name="Path 262" d="M451.615,265.157h1.035v1.648h-1.035Z" transform="translate(-451.615 -265.157)" fill="#fedf30"/>
    </g>
    <g id="Group_92" data-name="Group 92" transform="translate(0 0.756)">
      <path id="Path_263" data-name="Path 263" d="M179.719,59.7a.385.385,0,0,0,.339-.2l.334-.619a.385.385,0,0,0-.678-.367l-.334.619a.386.386,0,0,0,.339.569Z" transform="translate(-170.114 -55.35)"/>
      <path id="Path_264" data-name="Path 264" d="M249.183,58.577v-.7a.385.385,0,1,0-.771,0v.7a.385.385,0,0,0,.771,0Z" transform="translate(-235.64 -54.571)"/>
      <path id="Path_265" data-name="Path 265" d="M311.544,59.79a.386.386,0,0,0,.333-.579l-.353-.608a.386.386,0,0,0-.667.387l.353.608A.385.385,0,0,0,311.544,59.79Z" transform="translate(-294.826 -55.446)"/>
      <path id="Path_266" data-name="Path 266" d="M26.324,12.625v-.34a2.11,2.11,0,0,0-.915-1.738,1.831,1.831,0,0,0,.577-2.036,10.852,10.852,0,0,0-3.491-4.9A15.042,15.042,0,0,0,13.167.756h-.011a19.293,19.293,0,0,0-4.806.635.385.385,0,1,0,.2.744,18.52,18.52,0,0,1,4.608-.607c8.34.123,11.159,4.589,12.1,7.241a1.052,1.052,0,0,1-.988,1.407H2.052a1.042,1.042,0,0,1-.86-.445,1.027,1.027,0,0,1-.134-.946A10.137,10.137,0,0,1,6.911,2.7a.385.385,0,0,0-.3-.711A11.311,11.311,0,0,0,2.256,5.143,10.858,10.858,0,0,0,.332,8.528a1.789,1.789,0,0,0,.232,1.647,1.82,1.82,0,0,0,.352.372A2.109,2.109,0,0,0,0,12.285v.34a2.114,2.114,0,0,0,1.685,2.067l-.008,2.3A2.114,2.114,0,0,0,0,19.06v.34a2.114,2.114,0,0,0,1.683,2.067,4.947,4.947,0,0,0,.221,1.8,5.416,5.416,0,0,0,3.659,3.356A7.624,7.624,0,0,0,7.982,27H18.341a7.624,7.624,0,0,0,2.419-.383,5.416,5.416,0,0,0,3.659-3.356,4.947,4.947,0,0,0,.221-1.8A2.114,2.114,0,0,0,26.324,19.4v-.34a2.113,2.113,0,0,0-1.685-2.067v-2.3a2.114,2.114,0,0,0,1.685-2.067ZM.771,19.4v-.34a1.341,1.341,0,0,1,.9-1.265v.227A1.4,1.4,0,0,0,3.97,19.1a1.249,1.249,0,0,1,.863-.315c.044,0,.086,0,.127,0v1.949H2.111A1.341,1.341,0,0,1,.771,19.4Zm15.362-3.015h7.735v1.638a.615.615,0,0,1-.359.569.624.624,0,0,1-.677-.085,2,2,0,0,0-1.353-.491,2.347,2.347,0,0,0-1.626.633,1.646,1.646,0,0,1-2.3,0,2.347,2.347,0,0,0-1.627-.633,2.376,2.376,0,0,0-1.627.633,1.646,1.646,0,0,1-2.3,0,2.376,2.376,0,0,0-1.626-.633,2.347,2.347,0,0,0-1.627.633,1.883,1.883,0,0,1-.732.418V16.895a.511.511,0,0,1,.511-.511h5.792a.385.385,0,0,0,0-.771H8.534a1.283,1.283,0,0,0-1.282,1.282v4.748a.76.76,0,1,1-1.521,0V16.895A1.283,1.283,0,0,0,4.45,15.613H2.456v-.877H23.868v.877H16.133a.385.385,0,1,0,0,.771Zm-11.683,0a.511.511,0,0,1,.511.511v1.123c-.041,0-.083,0-.127,0a2,2,0,0,0-1.353.49.624.624,0,0,1-.677.085.615.615,0,0,1-.359-.568V16.384Zm19.235,6.645a4.539,4.539,0,0,1-3.169,2.859,6.853,6.853,0,0,1-2.175.344H7.982a6.853,6.853,0,0,1-2.175-.344c-3.282-1.1-3.42-3.516-3.358-4.377H4.96v.132a1.531,1.531,0,1,0,3.063,0V21.51H23.872A4.165,4.165,0,0,1,23.685,23.029Zm1.868-3.969v.34a1.341,1.341,0,0,1-1.34,1.34H8.023v-.887a2.45,2.45,0,0,0,1.211-.6,1.646,1.646,0,0,1,2.3,0,2.376,2.376,0,0,0,1.626.633,2.347,2.347,0,0,0,1.626-.633,1.646,1.646,0,0,1,2.3,0,2.407,2.407,0,0,0,3.253,0,1.614,1.614,0,0,1,1.148-.466,1.249,1.249,0,0,1,.864.315,1.4,1.4,0,0,0,2.3-1.079V17.79A1.341,1.341,0,0,1,25.553,19.06Zm-1.34-5.1H2.111a1.341,1.341,0,0,1-1.34-1.34v-.34a1.341,1.341,0,0,1,1.34-1.34h22.1a1.341,1.341,0,0,1,1.34,1.34v.34A1.341,1.341,0,0,1,24.213,13.965Z" transform="translate(0 -0.756)"/>
    </g>
  </g>
</svg>
